<svg xmlns="http://www.w3.org/2000/svg" width="353" height="133" viewBox="0 0 353 133">
  <g fill="none" fill-rule="evenodd">
    <path fill="#000" d="M0,118.221899 L9.7455029,118.221899 L9.7455029,120.529303 L2.76888478,120.529303 L2.76888478,123.593536 L9.21115671,123.593536 L9.21115671,125.90094 L2.76888478,125.90094 L2.76888478,129.371275 L10.0602814,129.371275 L10.0602814,131.678679 L0,131.678679 L0,118.221899 Z M11.5688864,131.678582 L11.5688864,118.221802 L17.5496775,118.221802 C19.567563,118.221802 20.8849693,118.948513 21.4999531,120.399992 C21.7340939,120.953769 21.8506786,121.62413 21.8506786,122.412048 C21.8506786,123.248543 21.7272932,123.938335 21.4814939,124.479482 C20.7304946,126.079606 19.4509784,126.879182 17.6419737,126.879182 L14.3377712,126.879182 L14.3377712,131.678582 L11.5688864,131.678582 Z M14.3377712,120.529206 L14.3377712,124.571778 L17.4389221,124.571778 C18.1277429,124.571778 18.632943,124.196764 18.9525791,123.445765 C19.100253,123.10184 19.1740899,122.707396 19.1740899,122.264374 C19.1740899,121.994286 19.1371715,121.760146 19.0633345,121.562923 C18.8175353,120.874102 18.2326691,120.529206 17.3097075,120.529206 L14.3377712,120.529206 Z M35.4872904,125.051427 C35.4872904,126.072514 35.3085273,127.063483 34.9519727,128.023363 C34.6070765,128.971585 34.1213072,129.770189 33.4936933,130.423063 C32.4104279,131.543247 30.9152301,132.102853 29.0081,132.102853 C27.1009699,132.102853 25.6057721,131.543247 24.5225066,130.423063 C23.8948928,129.770189 23.4023227,128.971585 23.0457681,128.023363 C22.7018435,127.063483 22.5289096,126.072514 22.5289096,125.051427 C22.5289096,124.03034 22.7018435,123.0452 23.0457681,122.097949 C23.4023227,121.138069 23.8948928,120.331692 24.5225066,119.67979 C25.6057721,118.559606 27.1009699,118 29.0081,118 C30.9152301,118 32.4104279,118.559606 33.4936933,119.67979 C34.1213072,120.331692 34.6070765,121.138069 34.9519727,122.097949 C35.3085273,123.0452 35.4872904,124.03034 35.4872904,125.051427 Z M29.0081,129.684694 C30.0048985,129.684694 30.8297347,129.383517 31.4816371,128.780191 C32.3803102,127.955355 32.829161,126.712757 32.829161,125.051427 C32.829161,123.390096 32.3803102,122.147498 31.4816371,121.322662 C30.8297347,120.719336 30.0048985,120.418159 29.0081,120.418159 C28.0113015,120.418159 27.1864653,120.719336 26.5345629,121.322662 C25.6358898,122.147498 25.187039,123.390096 25.187039,125.051427 C25.187039,126.712757 25.6358898,127.955355 26.5345629,128.780191 C27.1864653,129.383517 28.0113015,129.684694 29.0081,129.684694 Z M36.0732253,118.221705 L39.3405093,118.221705 L41.6848318,122.559625 L44.1583688,118.221705 L47.4071936,118.221705 L43.2538665,124.811651 L47.517949,131.678485 L44.250665,131.678485 L41.6848318,127.119055 L39.1189985,131.678485 L35.8701737,131.678485 L40.1342563,124.903947 L36.0732253,118.221705 Z M55.9859759,118.221705 L59.0871269,118.221705 L54.7861259,126.694493 L54.7861259,131.678485 L52.0172411,131.678485 L52.0172411,126.694493 L47.5870254,118.221705 L50.6697171,118.221705 L53.4016835,124.017904 L55.9859759,118.221705 Z M71.5196139,118.221705 L76.1344218,131.678485 L73.3101594,131.678485 L72.3871978,128.983437 L67.4032052,128.983437 L66.4617843,131.678485 L63.6375219,131.678485 L68.3261668,118.221705 L71.5196139,118.221705 Z M69.9321199,121.452071 L68.2707891,126.676033 L71.7226654,126.676033 L69.9321199,121.452071 Z M77.0528172,118.221705 L79.7847835,118.221705 L85.2302569,127.46978 L85.2302569,118.221705 L87.9991417,118.221705 L87.9991417,131.678485 L85.2671754,131.678485 L79.821702,122.301195 L79.821702,131.678485 L77.0528172,131.678485 L77.0528172,118.221705 Z M89.858375,131.678582 L89.858375,118.221802 L96.1160546,118.221802 C97.9746078,118.221802 99.4076271,119.268149 100.417056,121.359872 C100.810529,122.172078 101.007751,123.168876 101.007751,124.350267 C101.007751,126.380783 100.595819,128.036284 99.7709825,129.315801 C99.3036725,130.029881 98.7188063,130.602118 98.0173555,131.032509 C97.3285347,131.463872 96.6329131,131.678582 95.9314623,131.678582 L89.858375,131.678582 Z M92.6272598,120.529206 L92.6272598,129.371178 L94.8423676,129.371178 C96.2083507,129.371178 97.17406,128.767853 97.740467,127.562174 C98.0727332,126.860723 98.2320655,125.907643 98.220407,124.700993 C98.207777,123.384558 97.980437,122.406219 97.5374154,121.765975 C97.2051493,121.286035 96.8359646,120.953769 96.4298615,120.769176 C96.0975954,120.609844 95.660403,120.529206 95.1192561,120.529206 L92.6272598,120.529206 Z M106.923838,131.678582 L106.923838,118.221802 L112.904629,118.221802 C114.922514,118.221802 116.239921,118.948513 116.854904,120.399992 C117.089045,120.953769 117.20563,121.62413 117.20563,122.412048 C117.20563,123.248543 117.082244,123.938335 116.836445,124.479482 C116.085446,126.079606 114.80593,126.879182 112.996925,126.879182 L109.692722,126.879182 L109.692722,131.678582 L106.923838,131.678582 Z M109.692722,120.529206 L109.692722,124.571778 L112.793873,124.571778 C113.482694,124.571778 113.987894,124.196764 114.30753,123.445765 C114.455204,123.10184 114.529041,122.707396 114.529041,122.264374 C114.529041,121.994286 114.492123,121.760146 114.418286,121.562923 C114.172487,120.874102 113.58762,120.529206 112.664659,120.529206 L109.692722,120.529206 Z M130.842825,125.051427 C130.842825,126.072514 130.665033,127.063483 130.307507,128.023363 C129.962611,128.971585 129.476841,129.770189 128.849228,130.423063 C127.765962,131.543247 126.270764,132.102853 124.363634,132.102853 C122.456504,132.102853 120.961306,131.543247 119.878041,130.423063 C119.250427,129.770189 118.757857,128.971585 118.401302,128.023363 C118.056406,127.063483 117.884444,126.072514 117.884444,125.051427 C117.884444,124.03034 118.056406,123.0452 118.401302,122.097949 C118.757857,121.138069 119.250427,120.331692 119.878041,119.67979 C120.961306,118.559606 122.456504,118 124.363634,118 C126.270764,118 127.765962,118.559606 128.849228,119.67979 C129.476841,120.331692 129.962611,121.138069 130.307507,122.097949 C130.665033,123.0452 130.842825,124.03034 130.842825,125.051427 Z M124.363634,129.684694 C125.360433,129.684694 126.185269,129.383517 126.837171,128.780191 C127.735844,127.955355 128.184695,126.712757 128.184695,125.051427 C128.184695,123.390096 127.735844,122.147498 126.837171,121.322662 C126.185269,120.719336 125.360433,120.418159 124.363634,120.418159 C123.366836,120.418159 122.541999,120.719336 121.890097,121.322662 C120.991424,122.147498 120.542573,123.390096 120.542573,125.051427 C120.542573,126.712757 120.991424,127.955355 121.890097,128.780191 C122.541999,129.383517 123.366836,129.684694 124.363634,129.684694 Z M132.296343,118.221705 L135.065228,118.221705 L135.065228,129.371081 L141.5075,129.371081 L141.5075,131.678485 L132.296343,131.678485 L132.296343,118.221705 Z M150.307696,118.221705 L153.408847,118.221705 L149.107846,126.694493 L149.107846,131.678485 L146.338961,131.678485 L146.338961,126.694493 L141.908746,118.221705 L144.991437,118.221705 L147.723404,124.017904 L150.307696,118.221705 Z M162.338063,118.221705 L165.10792,118.221705 L165.10792,127.506699 C165.10792,129.40217 164.263653,130.749694 162.578033,131.549271 C161.802745,131.918455 160.885613,132.103047 159.827608,132.103047 C158.880358,132.103047 158.011802,131.955374 157.224856,131.660026 C155.366303,130.626309 154.437512,129.241867 154.437512,127.506699 L154.437512,118.221705 L157.206397,118.221705 L157.206397,127.543617 C157.206397,128.983437 158.055521,129.703347 159.753771,129.703347 C161.476309,129.703347 162.338063,128.983437 162.338063,127.543617 L162.338063,118.221705 Z M167.151162,131.678582 L167.151162,118.221802 L174.627151,118.221802 C175.341232,118.221802 175.974675,118.394736 176.528452,118.738661 C177.131777,119.132134 177.525251,119.667452 177.709843,120.344614 C177.907065,121.021776 178.005191,121.569724 178.005191,121.987486 C178.005191,122.35667 177.956614,122.720026 177.858488,123.07658 C177.709843,123.606069 177.476674,124.03646 177.156066,124.368726 C176.934555,124.614526 176.559541,124.892386 176.030053,125.199392 C176.58383,125.581207 176.873348,125.778429 176.897637,125.790087 C177.254191,126.122353 177.464044,126.552745 177.525251,127.082234 C177.586457,127.611722 177.630177,128.608521 177.655437,130.072629 C177.667095,130.602118 177.839057,130.971302 178.171324,131.180183 L178.171324,131.678582 L175.199387,131.678582 C174.977877,131.285109 174.855463,130.866376 174.830203,130.423355 L174.830203,127.709847 C174.830203,126.811174 174.276426,126.362324 173.168872,126.362324 L169.920047,126.362324 L169.920047,131.678582 L167.151162,131.678582 Z M169.920047,120.529206 L169.920047,124.05492 L173.70419,124.05492 C174.098634,124.05492 174.473648,123.882957 174.830203,123.538061 C175.248936,123.144588 175.420898,122.646189 175.348033,122.042863 C175.348033,121.033435 174.787455,120.529206 173.667271,120.529206 L169.920047,120.529206 Z M179.772613,118.221705 L189.519088,118.221705 L189.519088,120.529109 L182.541498,120.529109 L182.541498,123.593342 L188.982799,123.593342 L188.982799,125.900746 L182.541498,125.900746 L182.541498,129.371081 L189.831923,129.371081 L189.831923,131.678485 L179.772613,131.678485 L179.772613,118.221705 Z M190.196736,118.221705 L200.977899,118.221705 L200.977899,120.529109 L197.046083,120.529109 L197.046083,131.678485 L194.276226,131.678485 L194.276226,120.529109 L190.196736,120.529109 L190.196736,118.221705 Z M201.785928,131.678582 L201.785928,118.221802 L204.554812,118.221802 L204.554812,123.279632 L209.88953,123.279632 L209.88953,118.221802 L212.657444,118.221802 L212.657444,131.678582 L209.88953,131.678582 L209.88953,125.587036 L204.554812,125.587036 L204.554812,131.678582 L201.785928,131.678582 Z M221.531768,118.221705 L226.146576,131.678485 L223.323285,131.678485 L222.400323,128.983437 L217.416331,128.983437 L216.473938,131.678485 L213.650647,131.678485 L218.339292,118.221705 L221.531768,118.221705 Z M219.944274,121.452071 L218.282943,126.676033 L221.734819,126.676033 L219.944274,121.452071 Z M227.064971,118.221705 L229.797909,118.221705 L235.242411,127.46978 L235.242411,118.221705 L238.012267,118.221705 L238.012267,131.678485 L235.279329,131.678485 L229.833856,122.301195 L229.833856,131.678485 L227.064971,131.678485 L227.064971,118.221705 Z M239.907447,118.221705 L249.653922,118.221705 L249.653922,120.529109 L242.677304,120.529109 L242.677304,123.593342 L249.118604,123.593342 L249.118604,125.900746 L242.677304,125.900746 L242.677304,129.371081 L249.967729,129.371081 L249.967729,131.678485 L239.907447,131.678485 L239.907447,118.221705 Z M265.759505,122.31946 L263.156753,122.31946 C263.181041,121.741395 262.959531,121.255626 262.492221,120.861181 C261.987992,120.430789 261.28557,120.209279 260.387868,120.196649 C258.849923,120.17236 258.037716,120.689219 257.951249,121.747224 C257.914331,122.177616 257.969709,122.485593 258.117383,122.670186 C258.228138,122.81786 258.455478,122.959704 258.800374,123.094748 C258.972336,123.27934 260.09835,123.556229 262.178414,123.925413 C263.704701,124.196473 264.756877,124.632693 265.334942,125.236019 C265.925638,125.838373 266.220985,126.633091 266.220985,127.61726 C266.220985,128.331341 266.060681,129.020161 265.741045,129.684694 C265.433068,130.336596 265.021135,130.829166 264.504277,131.161432 C263.581315,131.752128 262.178414,132.065935 260.295572,132.102853 C259.85255,132.115483 259.341521,132.047475 258.763456,131.899802 C258.025086,131.726868 257.434391,131.481069 256.991369,131.161432 C255.846897,130.336596 255.219283,129.179494 255.108528,127.691097 L257.803576,127.691097 C257.803576,128.220585 257.993997,128.682066 258.375812,129.075539 C258.916959,129.641946 259.760254,129.906205 260.904727,129.869286 C261.925814,129.844998 262.639894,129.635145 263.045997,129.241672 C263.378264,128.933695 263.544397,128.540221 263.544397,128.060281 C263.544397,127.641548 263.396723,127.279164 263.101375,126.971187 C262.756479,126.614632 261.981191,126.319284 260.775512,126.085144 C259.114181,125.777166 258.129041,125.568285 257.822035,125.45753 C256.184992,124.891123 255.366957,123.820487 255.366957,122.245623 C255.366957,122.073661 255.372786,121.900727 255.385416,121.728765 C255.496172,120.596922 255.957652,119.704079 256.769859,119.052176 C257.643272,118.350725 258.86741,118 260.443246,118 C262.571887,118 264.085544,118.572236 264.984217,119.716709 C265.525364,120.405529 265.796423,121.169159 265.796423,122.005653 C265.796423,122.129039 265.783793,122.232993 265.759505,122.31946 Z M275.039349,118.221705 L278.1405,118.221705 L273.840471,126.694493 L273.840471,131.678485 L271.070614,131.678485 L271.070614,126.694493 L266.640399,118.221705 L269.72309,118.221705 L272.455057,124.017904 L275.039349,118.221705 Z M289.009004,122.31946 L286.406253,122.31946 C286.431513,121.741395 286.20903,121.255626 285.742692,120.861181 C285.237492,120.430789 284.536041,120.209279 283.638339,120.196649 C282.100394,120.17236 281.288188,120.689219 281.200749,121.747224 C281.164802,122.177616 281.219208,122.485593 281.367854,122.670186 C281.477638,122.81786 281.704978,122.959704 282.049874,123.094748 C282.222808,123.27934 283.347849,123.556229 285.427913,123.925413 C286.955172,124.196473 288.007348,124.632693 288.584442,125.236019 C289.175137,125.838373 289.471457,126.633091 289.471457,127.61726 C289.471457,128.331341 289.311153,129.020161 288.990545,129.684694 C288.682567,130.336596 288.270635,130.829166 287.753776,131.161432 C286.831786,131.752128 285.427913,132.065935 283.545072,132.102853 C283.10205,132.115483 282.591992,132.047475 282.013927,131.899802 C281.274586,131.726868 280.684862,131.481069 280.241841,131.161432 C279.096397,130.336596 278.468783,129.179494 278.358027,127.691097 L281.054047,127.691097 C281.054047,128.220585 281.243497,128.682066 281.625312,129.075539 C282.166458,129.641946 283.009754,129.906205 284.154226,129.869286 C285.176285,129.844998 285.889394,129.635145 286.295497,129.241672 C286.628735,128.933695 286.794868,128.540221 286.794868,128.060281 C286.794868,127.641548 286.646223,127.279164 286.351846,126.971187 C286.005979,126.614632 285.230691,126.319284 284.025012,126.085144 C282.363681,125.777166 281.379512,125.568285 281.071535,125.45753 C279.435464,124.891123 278.617428,123.820487 278.617428,122.245623 C278.617428,122.073661 278.623257,121.900727 278.634916,121.728765 C278.746643,120.596922 279.207152,119.704079 280.019358,119.052176 C280.892771,118.350725 282.117882,118 283.692745,118 C285.822358,118 287.335043,118.572236 288.233717,119.716709 C288.775835,120.405529 289.045923,121.169159 289.045923,122.005653 C289.045923,122.129039 289.033293,122.232993 289.009004,122.31946 Z M289.650414,118.221705 L300.430605,118.221705 L300.430605,120.529109 L296.498789,120.529109 L296.498789,131.678485 L293.729904,131.678485 L293.729904,120.529109 L289.650414,120.529109 L289.650414,118.221705 Z M301.440714,118.221705 L311.187188,118.221705 L311.187188,120.529109 L304.21057,120.529109 L304.21057,123.593342 L310.651871,123.593342 L310.651871,125.900746 L304.21057,125.900746 L304.21057,129.371081 L311.500995,129.371081 L311.500995,131.678485 L301.440714,131.678485 L301.440714,118.221705 Z M320.763352,131.678582 L317.993496,131.678582 L315.594767,120.787635 L315.594767,131.678582 L312.825882,131.678582 L312.825882,118.221802 L316.868454,118.221802 L319.37891,128.558972 L321.889365,118.221802 L325.930966,118.221802 L325.930966,131.678582 L323.163052,131.678582 L323.163052,120.787635 L320.763352,131.678582 Z M337.537548,122.31946 L334.934796,122.31946 C334.959084,121.741395 334.737574,121.255626 334.270264,120.861181 C333.766035,120.430789 333.064584,120.209279 332.165911,120.196649 C330.627966,120.17236 329.81576,120.689219 329.729293,121.747224 C329.692374,122.177616 329.747752,122.485593 329.895426,122.670186 C330.006181,122.81786 330.234493,122.959704 330.578417,123.094748 C330.752323,123.27934 331.876393,123.556229 333.956457,123.925413 C335.482744,124.196473 336.53492,124.632693 337.112985,125.236019 C337.703681,125.838373 338,126.633091 338,127.61726 C338,128.331341 337.839696,129.020161 337.519088,129.684694 C337.211111,130.336596 336.799178,130.829166 336.28232,131.161432 C335.359358,131.752128 333.956457,132.065935 332.073615,132.102853 C331.630593,132.115483 331.120536,132.047475 330.541499,131.899802 C329.80313,131.726868 329.213406,131.481069 328.770384,131.161432 C327.62494,130.336596 326.997326,129.179494 326.886571,127.691097 L329.58259,127.691097 C329.58259,128.220585 329.77204,128.682066 330.153855,129.075539 C330.695002,129.641946 331.538297,129.906205 332.68277,129.869286 C333.704828,129.844998 334.417937,129.635145 334.824041,129.241672 C335.156307,128.933695 335.32244,128.540221 335.32244,128.060281 C335.32244,127.641548 335.174766,127.279164 334.879418,126.971187 C334.534522,126.614632 333.759234,126.319284 332.553555,126.085144 C330.892224,125.777166 329.908056,125.568285 329.600078,125.45753 C327.964007,124.891123 327.145,123.820487 327.145,122.245623 C327.145,122.073661 327.151801,121.900727 327.163459,121.728765 C327.275186,120.596922 327.735696,119.704079 328.547902,119.052176 C329.421315,118.350725 330.646425,118 332.221289,118 C334.34993,118 335.863587,118.572236 336.76226,119.716709 C337.304378,120.405529 337.574466,121.169159 337.574466,122.005653 C337.574466,122.129039 337.561836,122.232993 337.537548,122.31946 Z"/>
    <polygon fill="#000" points="0 0 0 23.749 0 27.683 0 103.608 0 105.642 1.899 105.642 105.6 105.642 105.6 1.936 105.6 0"/>
    <polygon fill="#0054A5" points="2.782 26.531 2.782 2.783 100.818 2.783 39.935 63.671"/>
    <polygon fill="#EC047B" points="102.817 4.718 102.817 102.86 4.682 102.86"/>
    <polygon fill="#FCBE57" points="2.782 30.464 37.967 65.638 2.782 100.825"/>
    <path fill="#000" d="M148.228 32.7371C152.831 37.0321 155.808 44.4841 155.808 51.7191 155.808 58.7751 152.904 65.9011 148.228 70.3181 142.712 75.5511 136.182 75.9891 129.966 75.9891L120 75.9891 120 27.0011 129.793 27.0011C136.289 27.0671 143.011 27.8071 148.228 32.7371zM146.172 51.7191C146.172 46.8441 144.193 42.4211 140.88 39.8901 137.721 37.5111 133.917 37.2671 129.636 37.2581L129.636 65.7331 129.736 65.7331C134.249 65.7331 137.972 65.5121 141.375 62.7351 144.418 60.1251 146.172 56.1051 146.172 51.7191zM180.4957 38.8246L189.9017 38.8246 189.9017 75.9896 181.1287 75.9896 181.1287 74.1686C179.3197 76.1226 176.8257 77.1396 173.7807 77.1396 169.5437 77.1396 165.7247 75.2746 163.0277 71.8876 160.0277 68.3536 159.7877 64.4466 159.7877 59.7086L159.7877 38.8246 169.1937 38.8246 169.1937 57.0876C169.1937 58.7856 169.1937 61.9486 170.0957 63.9496 170.9757 65.9066 172.7197 67.0746 174.7597 67.0746 178.7257 67.0746 180.4957 63.9946 180.4957 57.0876L180.4957 38.8246zM209.3746 37.6752L210.8276 37.6752 210.8276 47.6762 209.9496 47.6762C208.4926 47.6762 206.8886 48.2452 205.8616 49.1262 204.0266 50.7902 203.9246 53.0192 203.9826 55.9852L203.9826 75.9902 194.5766 75.9902 194.5766 38.8252 203.2926 38.8252 203.2926 40.2162C204.9256 38.4562 206.8456 37.6752 209.3746 37.6752zM238.6369 39.0831L246.8929 39.0831 246.8929 75.7311 238.6369 75.7311 238.6369 72.1261C236.0419 75.0231 232.1019 76.8821 228.3269 76.8821 223.4669 76.8821 219.1239 74.6831 216.0989 70.6911 213.4579 67.1561 212.0049 62.4401 212.0049 57.4071 212.0049 52.1051 213.3449 47.9411 216.2209 44.3041 219.4999 40.0781 223.6519 37.9321 228.5579 37.9321 232.5299 37.9321 236.0489 39.6391 238.6369 42.7811L238.6369 39.0831zM238.4069 57.3431C238.4069 54.2911 237.3819 51.5971 235.5189 49.7571 233.9869 48.2421 232.0209 47.4621 229.8309 47.4811 229.7949 47.4801 229.7599 47.4801 229.7229 47.4801 227.4579 47.4801 225.4419 48.2971 223.8759 49.8451 221.9529 51.7461 220.8939 54.5451 220.8939 57.7261 220.8939 60.5191 221.9149 63.0641 223.7659 64.8931 225.3859 66.4931 227.5109 67.3731 229.6999 67.3331 232.0009 67.3661 233.9629 66.5651 235.5099 65.0361 237.3779 63.1901 238.4069 60.4571 238.4069 57.3431zM261.9537 38.8256L266.5567 38.8256 266.5567 48.1236 261.9537 48.1236 261.9537 75.9906 252.5487 75.9906 252.5487 48.1236 248.8087 48.1236 248.8087 38.8256 252.5487 38.8256 252.5487 27.0016 261.9537 27.0016 261.9537 38.8256zM285.1953 37.6751C294.5263 37.6751 302.4083 46.5941 302.4083 57.1521 302.4083 58.2891 302.2543 59.4141 302.1053 60.5021L301.9013 62.0571 277.6293 62.0571C278.9153 65.1011 281.6733 67.0751 284.7913 67.0751 287.3663 67.0751 289.8983 66.0001 291.2413 64.3351L291.5053 64.0081 301.5713 64.0081 301.2193 65.1451C299.1413 71.8721 292.0513 77.1411 285.0793 77.1411 275.3343 77.1411 267.4063 68.4041 267.4063 57.6631 267.4063 46.4551 275.2193 37.6751 285.1953 37.6751zM285.1373 47.7401C281.9453 47.7401 278.8643 49.8321 277.5333 52.7601L292.5663 52.7601C291.2083 49.6741 288.4003 47.7401 285.1373 47.7401zM323.2623 56.996L337.3363 75.989 324.8813 75.989 315.3033 61.481 315.3033 75.989 305.8973 75.989 305.8973 27 315.3033 27 315.3033 53.275 324.1723 38.825 335.3323 38.825 323.2623 56.996zM345.308 38.7C341.192 38.7 338 35.382 338 31.392L338 31.35C338 27.36 341.234 24 345.308 24 349.424 24 352.616 27.318 352.616 31.308L352.616 31.35C352.616 35.34 349.382 38.7 345.308 38.7zM345.308 37.902C348.962 37.902 351.776 34.92 351.776 31.35L351.776 31.308C351.776 27.738 349.004 24.798 345.308 24.798 341.654 24.798 338.84 27.78 338.84 31.35L338.84 31.392C338.84 34.962 341.612 37.902 345.308 37.902zM342.452 34.92L342.452 27.486 345.812 27.486C347.45 27.486 348.668 28.284 348.668 29.838 348.668 31.056 347.954 31.812 346.946 32.106L348.92 34.92 347.198 34.92 345.434 32.358 343.88 32.358 343.88 34.92 342.452 34.92zM343.88 31.182L345.686 31.182C346.652 31.182 347.198 30.678 347.198 29.964 347.198 29.166 346.652 28.746 345.686 28.746L343.88 28.746 343.88 31.182z"/>
  </g>
</svg>
