<svg xmlns="http://www.w3.org/2000/svg" width="353" height="132" viewBox="0 0 353 132">
  <g fill="none" fill-rule="evenodd">
    <path fill="#000" d="M0,131.785235 L0,119.257271 L9.5130064,119.257271 L9.5130064,121.709172 L2.75660981,121.709172 L2.75660981,124.250559 L8.70223881,124.250559 L8.70223881,126.702461 L2.75660981,126.702461 L2.75660981,129.333333 L9.60309168,129.333333 L9.60309168,131.785235 L0,131.785235 Z M12.0714286,131.785235 L12.0714286,119.257271 L17.224307,119.257271 C20.2331557,119.257271 22.0528785,121.029083 22.0528785,123.588367 L22.0528785,123.624161 C22.0528785,126.52349 19.7827292,128.026846 16.9540512,128.026846 L14.8460554,128.026846 L14.8460554,131.785235 L12.0714286,131.785235 Z M14.8460554,125.574944 L17.0441365,125.574944 C18.4314499,125.574944 19.2422175,124.751678 19.2422175,123.677852 L19.2422175,123.642058 C19.2422175,122.407159 18.3773987,121.744966 16.9900853,121.744966 L14.8460554,121.744966 L14.8460554,125.574944 Z M30.2326226,132 C26.3409382,132 23.5482942,129.118568 23.5482942,125.557047 L23.5482942,125.521253 C23.5482942,121.959732 26.3769723,119.042506 30.2686567,119.042506 C34.1603412,119.042506 36.9529851,121.923937 36.9529851,125.485459 L36.9529851,125.521253 C36.9529851,129.082774 34.124307,132 30.2326226,132 Z M30.2686567,129.458613 C32.5027719,129.458613 34.0522388,127.704698 34.0522388,125.557047 L34.0522388,125.521253 C34.0522388,123.373602 32.4667377,121.583893 30.2326226,121.583893 C27.9985075,121.583893 26.4490405,123.337808 26.4490405,125.485459 L26.4490405,125.521253 C26.4490405,127.668904 28.0345416,129.458613 30.2686567,129.458613 Z M39.421322,131.785235 L39.421322,119.257271 L42.1959488,119.257271 L42.1959488,124.733781 L47.3127932,119.257271 L50.6639659,119.257271 L45.5291045,124.572707 L50.8981876,131.785235 L47.565032,131.785235 L43.6553305,126.451902 L42.1959488,127.955257 L42.1959488,131.785235 L39.421322,131.785235 Z M57.0600213,131.964206 C55.1502132,131.964206 53.2223881,131.302013 51.7089552,129.959732 L53.3485075,128.008949 C54.4835821,128.939597 55.6727079,129.530201 57.1140725,129.530201 C58.2491471,129.530201 58.9337953,129.082774 58.9337953,128.348993 L58.9337953,128.313199 C58.9337953,127.615213 58.5013859,127.257271 56.3933902,126.720358 C53.8529851,126.076063 52.2134328,125.378076 52.2134328,122.89038 L52.2134328,122.854586 C52.2134328,120.581655 54.0511727,119.0783 56.6276119,119.0783 C58.4653518,119.0783 60.0328358,119.651007 61.3120469,120.671141 L59.8706823,122.747204 C58.7536247,121.977629 57.6545842,121.512304 56.5915778,121.512304 C55.5285714,121.512304 54.9700426,121.995526 54.9700426,122.604027 L54.9700426,122.639821 C54.9700426,123.463087 55.5105544,123.731544 57.6906183,124.286353 C60.2490405,124.948546 61.6904051,125.861298 61.6904051,128.044743 L61.6904051,128.080537 C61.6904051,130.568233 59.780597,131.964206 57.0600213,131.964206 Z M64.2308102,131.785235 L64.2308102,119.257271 L67.0054371,119.257271 L67.0054371,131.785235 L64.2308102,131.785235 Z M64.2668443,118.272931 L64.2668443,116 L66.969403,116 L66.969403,118.272931 L64.2668443,118.272931 Z M79.5813433,131.87472 L74.482516,119.257271 L77.5454158,119.257271 L80.8425373,128.080537 L84.1396588,119.257271 L87.1304904,119.257271 L82.0316631,131.87472 L79.5813433,131.87472 Z M89.0763326,131.785235 L89.0763326,119.257271 L98.589339,119.257271 L98.589339,121.709172 L91.8329424,121.709172 L91.8329424,124.250559 L97.7785714,124.250559 L97.7785714,126.702461 L91.8329424,126.702461 L91.8329424,129.333333 L98.6794243,129.333333 L98.6794243,131.785235 L89.0763326,131.785235 Z M106.552878,131.785235 L106.552878,119.257271 L111.705757,119.257271 C114.714606,119.257271 116.534328,121.029083 116.534328,123.588367 L116.534328,123.624161 C116.534328,126.52349 114.264179,128.026846 111.435501,128.026846 L109.327505,128.026846 L109.327505,131.785235 L106.552878,131.785235 Z M109.327505,125.574944 L111.525586,125.574944 C112.9129,125.574944 113.723667,124.751678 113.723667,123.677852 L113.723667,123.642058 C113.723667,122.407159 112.858849,121.744966 111.471535,121.744966 L109.327505,121.744966 L109.327505,125.574944 Z M124.714072,132 C120.822388,132 118.029744,129.118568 118.029744,125.557047 L118.029744,125.521253 C118.029744,121.959732 120.858422,119.042506 124.750107,119.042506 C128.641791,119.042506 131.434435,121.923937 131.434435,125.485459 L131.434435,125.521253 C131.434435,129.082774 128.605757,132 124.714072,132 Z M124.750107,129.458613 C126.984222,129.458613 128.533689,127.704698 128.533689,125.557047 L128.533689,125.521253 C128.533689,123.373602 126.948188,121.583893 124.714072,121.583893 C122.479957,121.583893 120.93049,123.337808 120.93049,125.485459 L120.93049,125.521253 C120.93049,127.668904 122.515991,129.458613 124.750107,129.458613 Z M133.902772,131.785235 L133.902772,119.257271 L136.677399,119.257271 L136.677399,129.279642 L142.965352,129.279642 L142.965352,131.785235 L133.902772,131.785235 Z M145.18145,131.785235 L145.18145,119.257271 L147.956077,119.257271 L147.956077,131.785235 L145.18145,131.785235 Z M145.217484,118.272931 L145.217484,116 L147.920043,116 L147.920043,118.272931 L145.217484,118.272931 Z M156.370043,131.982103 C152.982836,131.982103 150.910874,130.102908 150.910874,126.416107 L150.910874,119.257271 L153.685501,119.257271 L153.685501,126.344519 C153.685501,128.384787 154.712473,129.440716 156.406077,129.440716 C158.09968,129.440716 159.126652,128.420582 159.126652,126.434004 L159.126652,119.257271 L161.901279,119.257271 L161.901279,126.326622 C161.901279,130.120805 159.757249,131.982103 156.370043,131.982103 Z M157.054691,118.272931 L157.054691,116 L159.685181,116 L159.685181,118.272931 L157.054691,118.272931 Z M153.126972,118.272931 L153.126972,116 L155.757463,116 L155.757463,118.272931 L153.126972,118.272931 Z M164.729957,131.785235 L164.729957,119.257271 L170.495416,119.257271 C172.098934,119.257271 173.342111,119.704698 174.170896,120.527964 C174.873561,121.225951 175.251919,122.210291 175.251919,123.391499 L175.251919,123.427293 C175.251919,125.449664 174.152878,126.720358 172.54936,127.310962 L175.630277,131.785235 L172.387207,131.785235 L169.684648,127.776286 L167.504584,127.776286 L167.504584,131.785235 L164.729957,131.785235 Z M167.504584,125.342282 L170.315245,125.342282 C171.666525,125.342282 172.441258,124.626398 172.441258,123.57047 L172.441258,123.534676 C172.441258,122.353468 171.612473,121.744966 170.261194,121.744966 L167.504584,121.744966 L167.504584,125.342282 Z M177.75629,131.785235 L177.75629,119.257271 L187.269296,119.257271 L187.269296,121.709172 L180.5129,121.709172 L180.5129,124.250559 L186.458529,124.250559 L186.458529,126.702461 L180.5129,126.702461 L180.5129,129.333333 L187.359382,129.333333 L187.359382,131.785235 L177.75629,131.785235 Z M192.764499,131.785235 L192.764499,121.798658 L188.926866,121.798658 L188.926866,119.257271 L199.376759,119.257271 L199.376759,121.798658 L195.539126,121.798658 L195.539126,131.785235 L192.764499,131.785235 Z M200.421748,131.785235 L205.826866,119.167785 L208.385288,119.167785 L213.790405,131.785235 L210.889659,131.785235 L209.736567,128.975391 L204.403518,128.975391 L203.250426,131.785235 L200.421748,131.785235 Z M205.394456,126.541387 L208.745629,126.541387 L207.070043,122.478747 L205.394456,126.541387 Z M215.736247,131.785235 L215.736247,119.257271 L218.29467,119.257271 L224.204264,126.970917 L224.204264,119.257271 L226.942857,119.257271 L226.942857,131.785235 L224.582623,131.785235 L218.47484,123.821029 L218.47484,131.785235 L215.736247,131.785235 Z M239.861087,131.964206 C237.951279,131.964206 236.023454,131.302013 234.510021,129.959732 L236.149574,128.008949 C237.284648,128.939597 238.473774,129.530201 239.915139,129.530201 C241.050213,129.530201 241.734861,129.082774 241.734861,128.348993 L241.734861,128.313199 C241.734861,127.615213 241.302452,127.257271 239.194456,126.720358 C236.654051,126.076063 235.014499,125.378076 235.014499,122.89038 L235.014499,122.854586 C235.014499,120.581655 236.852239,119.0783 239.428678,119.0783 C241.266418,119.0783 242.833902,119.651007 244.113113,120.671141 L242.671748,122.747204 C241.554691,121.977629 240.45565,121.512304 239.392644,121.512304 C238.329638,121.512304 237.771109,121.995526 237.771109,122.604027 L237.771109,122.639821 C237.771109,123.463087 238.31162,123.731544 240.491684,124.286353 C243.050107,124.948546 244.491471,125.861298 244.491471,128.044743 L244.491471,128.080537 C244.491471,130.568233 242.581663,131.964206 239.861087,131.964206 Z M247.031876,131.785235 L247.031876,119.257271 L249.806503,119.257271 L249.806503,131.785235 L247.031876,131.785235 Z M247.06791,118.272931 L247.06791,116 L249.770469,116 L249.770469,118.272931 L247.06791,118.272931 Z M257.445736,131.964206 C255.535928,131.964206 253.608102,131.302013 252.09467,129.959732 L253.734222,128.008949 C254.869296,128.939597 256.058422,129.530201 257.499787,129.530201 C258.634861,129.530201 259.31951,129.082774 259.31951,128.348993 L259.31951,128.313199 C259.31951,127.615213 258.8871,127.257271 256.779104,126.720358 C254.238699,126.076063 252.599147,125.378076 252.599147,122.89038 L252.599147,122.854586 C252.599147,120.581655 254.436887,119.0783 257.013326,119.0783 C258.851066,119.0783 260.41855,119.651007 261.697761,120.671141 L260.256397,122.747204 C259.139339,121.977629 258.040299,121.512304 256.977292,121.512304 C255.914286,121.512304 255.355757,121.995526 255.355757,122.604027 L255.355757,122.639821 C255.355757,123.463087 255.896269,123.731544 258.076333,124.286353 C260.634755,124.948546 262.076119,125.861298 262.076119,128.044743 L262.076119,128.080537 C262.076119,130.568233 260.166311,131.964206 257.445736,131.964206 Z M267.427186,131.785235 L267.427186,121.798658 L263.589552,121.798658 L263.589552,119.257271 L274.039446,119.257271 L274.039446,121.798658 L270.201812,121.798658 L270.201812,131.785235 L267.427186,131.785235 Z M276.165458,131.785235 L276.165458,119.257271 L285.678465,119.257271 L285.678465,121.709172 L278.922068,121.709172 L278.922068,124.250559 L284.867697,124.250559 L284.867697,126.702461 L278.922068,126.702461 L278.922068,129.333333 L285.76855,129.333333 L285.76855,131.785235 L276.165458,131.785235 Z M288.236887,131.785235 L288.236887,119.257271 L291.227719,119.257271 L294.542857,124.55481 L297.857996,119.257271 L300.848827,119.257271 L300.848827,131.785235 L298.092217,131.785235 L298.092217,123.606264 L294.542857,128.957494 L294.470789,128.957494 L290.957463,123.659955 L290.957463,131.785235 L288.236887,131.785235 Z M303.875693,131.785235 L303.875693,119.257271 L306.65032,119.257271 L306.65032,129.279642 L312.938273,129.279642 L312.938273,131.785235 L303.875693,131.785235 Z M315.028252,131.785235 L315.028252,119.257271 L324.541258,119.257271 L324.541258,121.709172 L317.784861,121.709172 L317.784861,124.250559 L323.73049,124.250559 L323.73049,126.702461 L317.784861,126.702461 L317.784861,129.333333 L324.631343,129.333333 L324.631343,131.785235 L315.028252,131.785235 Z M327.09968,131.785235 L327.09968,119.257271 L332.865139,119.257271 C334.468657,119.257271 335.711834,119.704698 336.540618,120.527964 C337.243284,121.225951 337.621642,122.210291 337.621642,123.391499 L337.621642,123.427293 C337.621642,125.449664 336.522601,126.720358 334.919083,127.310962 L338,131.785235 L334.75693,131.785235 L332.054371,127.776286 L329.874307,127.776286 L329.874307,131.785235 L327.09968,131.785235 Z M329.874307,125.342282 L332.684968,125.342282 C334.036247,125.342282 334.810981,124.626398 334.810981,123.57047 L334.810981,123.534676 C334.810981,122.353468 333.982196,121.744966 332.630917,121.744966 L329.874307,121.744966 L329.874307,125.342282 Z"/>
    <polygon fill="#000" points="0 0 0 23.749 0 27.683 0 103.608 0 105.642 1.899 105.642 105.6 105.642 105.6 1.936 105.6 0"/>
    <polygon fill="#0054A5" points="2.782 26.531 2.782 2.783 100.818 2.783 39.935 63.671"/>
    <polygon fill="#EC047B" points="102.817 4.718 102.817 102.86 4.682 102.86"/>
    <polygon fill="#FCBE57" points="2.782 30.464 37.967 65.638 2.782 100.825"/>
    <path fill="#000" d="M148.228 32.7371C152.831 37.0321 155.808 44.4841 155.808 51.7191 155.808 58.7751 152.904 65.9011 148.228 70.3181 142.712 75.5511 136.182 75.9891 129.966 75.9891L120 75.9891 120 27.0011 129.793 27.0011C136.289 27.0671 143.011 27.8071 148.228 32.7371zM146.172 51.7191C146.172 46.8441 144.193 42.4211 140.88 39.8901 137.721 37.5111 133.917 37.2671 129.636 37.2581L129.636 65.7331 129.736 65.7331C134.249 65.7331 137.972 65.5121 141.375 62.7351 144.418 60.1251 146.172 56.1051 146.172 51.7191zM180.4957 38.8246L189.9017 38.8246 189.9017 75.9896 181.1287 75.9896 181.1287 74.1686C179.3197 76.1226 176.8257 77.1396 173.7807 77.1396 169.5437 77.1396 165.7247 75.2746 163.0277 71.8876 160.0277 68.3536 159.7877 64.4466 159.7877 59.7086L159.7877 38.8246 169.1937 38.8246 169.1937 57.0876C169.1937 58.7856 169.1937 61.9486 170.0957 63.9496 170.9757 65.9066 172.7197 67.0746 174.7597 67.0746 178.7257 67.0746 180.4957 63.9946 180.4957 57.0876L180.4957 38.8246zM209.3746 37.6752L210.8276 37.6752 210.8276 47.6762 209.9496 47.6762C208.4926 47.6762 206.8886 48.2452 205.8616 49.1262 204.0266 50.7902 203.9246 53.0192 203.9826 55.9852L203.9826 75.9902 194.5766 75.9902 194.5766 38.8252 203.2926 38.8252 203.2926 40.2162C204.9256 38.4562 206.8456 37.6752 209.3746 37.6752zM238.6369 39.0831L246.8929 39.0831 246.8929 75.7311 238.6369 75.7311 238.6369 72.1261C236.0419 75.0231 232.1019 76.8821 228.3269 76.8821 223.4669 76.8821 219.1239 74.6831 216.0989 70.6911 213.4579 67.1561 212.0049 62.4401 212.0049 57.4071 212.0049 52.1051 213.3449 47.9411 216.2209 44.3041 219.4999 40.0781 223.6519 37.9321 228.5579 37.9321 232.5299 37.9321 236.0489 39.6391 238.6369 42.7811L238.6369 39.0831zM238.4069 57.3431C238.4069 54.2911 237.3819 51.5971 235.5189 49.7571 233.9869 48.2421 232.0209 47.4621 229.8309 47.4811 229.7949 47.4801 229.7599 47.4801 229.7229 47.4801 227.4579 47.4801 225.4419 48.2971 223.8759 49.8451 221.9529 51.7461 220.8939 54.5451 220.8939 57.7261 220.8939 60.5191 221.9149 63.0641 223.7659 64.8931 225.3859 66.4931 227.5109 67.3731 229.6999 67.3331 232.0009 67.3661 233.9629 66.5651 235.5099 65.0361 237.3779 63.1901 238.4069 60.4571 238.4069 57.3431zM261.9537 38.8256L266.5567 38.8256 266.5567 48.1236 261.9537 48.1236 261.9537 75.9906 252.5487 75.9906 252.5487 48.1236 248.8087 48.1236 248.8087 38.8256 252.5487 38.8256 252.5487 27.0016 261.9537 27.0016 261.9537 38.8256zM285.1953 37.6751C294.5263 37.6751 302.4083 46.5941 302.4083 57.1521 302.4083 58.2891 302.2543 59.4141 302.1053 60.5021L301.9013 62.0571 277.6293 62.0571C278.9153 65.1011 281.6733 67.0751 284.7913 67.0751 287.3663 67.0751 289.8983 66.0001 291.2413 64.3351L291.5053 64.0081 301.5713 64.0081 301.2193 65.1451C299.1413 71.8721 292.0513 77.1411 285.0793 77.1411 275.3343 77.1411 267.4063 68.4041 267.4063 57.6631 267.4063 46.4551 275.2193 37.6751 285.1953 37.6751zM285.1373 47.7401C281.9453 47.7401 278.8643 49.8321 277.5333 52.7601L292.5663 52.7601C291.2083 49.6741 288.4003 47.7401 285.1373 47.7401zM323.2623 56.996L337.3363 75.989 324.8813 75.989 315.3033 61.481 315.3033 75.989 305.8973 75.989 305.8973 27 315.3033 27 315.3033 53.275 324.1723 38.825 335.3323 38.825 323.2623 56.996zM345.308 38.7C341.192 38.7 338 35.382 338 31.392L338 31.35C338 27.36 341.234 24 345.308 24 349.424 24 352.616 27.318 352.616 31.308L352.616 31.35C352.616 35.34 349.382 38.7 345.308 38.7zM345.308 37.902C348.962 37.902 351.776 34.92 351.776 31.35L351.776 31.308C351.776 27.738 349.004 24.798 345.308 24.798 341.654 24.798 338.84 27.78 338.84 31.35L338.84 31.392C338.84 34.962 341.612 37.902 345.308 37.902zM342.452 34.92L342.452 27.486 345.812 27.486C347.45 27.486 348.668 28.284 348.668 29.838 348.668 31.056 347.954 31.812 346.946 32.106L348.92 34.92 347.198 34.92 345.434 32.358 343.88 32.358 343.88 34.92 342.452 34.92zM343.88 31.182L345.686 31.182C346.652 31.182 347.198 30.678 347.198 29.964 347.198 29.166 346.652 28.746 345.686 28.746L343.88 28.746 343.88 31.182z"/>
  </g>
</svg>
