<svg xmlns="http://www.w3.org/2000/svg" width="116" height="36" viewBox="0 0 116 36">
  <g fill="none" fill-rule="evenodd">
    <polygon fill="#FFF" points="0 0 0 8.066 0 9.402 0 35.188 0 35.878 .645 35.878 35.864 35.878 35.864 .658 35.864 0"/>
    <polygon fill="#0054A5" points=".945 9.011 .945 .945 34.24 .945 13.563 21.624"/>
    <polygon fill="#EC047B" points="34.919 1.602 34.919 34.934 1.59 34.934"/>
    <polygon fill="#FCBE57" points=".945 10.346 12.894 22.292 .945 34.242"/>
    <path fill="#FEFEFE" d="M51.5868679,11.1182604 C53.1501509,12.5769396 54.1612075,15.1078075 54.1612075,17.5649774 C54.1612075,19.9613547 53.1749434,22.3815057 51.5868679,23.8816189 C49.7135094,25.6588642 47.4957736,25.8076189 45.3846792,25.8076189 L42,25.8076189 L42,9.17018491 L45.3259245,9.17018491 C47.5321132,9.1926 49.8150566,9.44392075 51.5868679,11.1182604 Z M50.8886038,17.5649774 C50.8886038,15.909317 50.2164906,14.407166 49.0913208,13.5475811 C48.0184528,12.7396189 46.7265283,12.6567509 45.2726038,12.6536943 L45.2726038,22.3244491 L45.306566,22.3244491 C46.839283,22.3244491 48.1036981,22.2493925 49.259434,21.3062604 C50.2929057,20.4198453 50.8886038,19.0545623 50.8886038,17.5649774 Z M62.5457094,13.1857132 L65.7402,13.1857132 L65.7402,25.8077887 L62.7606906,25.8077887 L62.7606906,25.1893358 C62.1463132,25.8529585 61.2992943,26.1983547 60.2651434,26.1983547 C58.8261623,26.1983547 57.5291434,25.5649585 56.6131811,24.4146566 C55.5943132,23.2144302 55.5128038,21.8875245 55.5128038,20.2783925 L55.5128038,13.1857132 L58.7072943,13.1857132 L58.7072943,19.3882415 C58.7072943,19.9649208 58.7072943,21.0391472 59.013634,21.7187321 C59.3125019,22.3833736 59.9048038,22.7800528 60.597634,22.7800528 C61.9445774,22.7800528 62.5457094,21.7340151 62.5457094,19.3882415 L62.5457094,13.1857132 Z M72.3536377,12.7953509 L72.8471094,12.7953509 L72.8471094,16.191917 L72.5489208,16.191917 C72.0540906,16.191917 71.5093358,16.3851623 71.1605434,16.6843698 C70.5373358,17.2495019 70.5026943,18.0065208 70.5223925,19.0138415 L70.5223925,25.8079925 L67.3279019,25.8079925 L67.3279019,13.185917 L70.2880528,13.185917 L70.2880528,13.6583321 C70.8426566,13.0605962 71.4947321,12.7953509 72.3536377,12.7953509 Z M82.2917774,13.2735057 L85.0957019,13.2735057 L85.0957019,25.7199962 L82.2917774,25.7199962 L82.2917774,24.4956566 C81.4104566,25.4795434 80.0723434,26.1109019 78.7902679,26.1109019 C77.1397019,26.1109019 75.6647208,25.3640717 74.6373623,24.0082981 C73.7404189,22.8077321 73.2469472,21.2060717 73.2469472,19.4967509 C73.2469472,17.6960717 73.7020415,16.281883 74.6787962,15.0466755 C75.7924189,13.6114302 77.2025321,12.8826 78.8687208,12.8826 C80.2177019,12.8826 81.412834,13.4623358 82.2917774,14.5294302 L82.2917774,13.2735057 Z M82.2136642,19.4750151 C82.2136642,18.4384868 81.8655509,17.5235434 81.232834,16.8986377 C80.7125321,16.3841094 80.044834,16.1192038 79.3010604,16.1256566 C79.288834,16.125317 79.2769472,16.125317 79.2643811,16.125317 C78.4951358,16.125317 77.8104566,16.4027887 77.2786075,16.9285245 C76.6255132,17.5741472 76.2658528,18.5247509 76.2658528,19.6050906 C76.2658528,20.5536566 76.6126075,21.4179962 77.2412491,22.039166 C77.7914377,22.5825623 78.5131358,22.8814302 79.2565698,22.8678453 C80.0380415,22.8790528 80.7043811,22.6070151 81.2297774,22.0877321 C81.8641925,21.4607887 82.2136642,20.5326 82.2136642,19.4750151 Z M90.2106906,13.1860528 L91.7739736,13.1860528 L91.7739736,16.3438642 L90.2106906,16.3438642 L90.2106906,25.8081283 L87.0165396,25.8081283 L87.0165396,16.3438642 L85.7463509,16.3438642 L85.7463509,13.1860528 L87.0165396,13.1860528 L87.0165396,9.17035472 L90.2106906,9.17035472 L90.2106906,13.1860528 Z M98.1040642,12.795317 C101.273083,12.795317 103.949989,15.8244113 103.949989,19.4101472 C103.949989,19.7962981 103.897687,20.1783736 103.847083,20.547883 L103.7778,21.0759962 L95.5344792,21.0759962 C95.971234,22.1098075 96.9079132,22.7802226 97.9668566,22.7802226 C98.8413849,22.7802226 99.7013094,22.4151283 100.157423,21.8496566 L100.247083,21.7386 L103.665725,21.7386 L103.546177,22.1247509 C102.840442,24.4093925 100.432517,26.1988642 98.0646679,26.1988642 C94.7550453,26.1988642 92.062517,23.2315811 92.062517,19.5836943 C92.062517,15.7772038 94.7159887,12.795317 98.1040642,12.795317 Z M98.084366,16.2136189 C97.0002906,16.2136189 95.9539132,16.9241094 95.5018755,17.9185245 L100.607423,17.9185245 C100.146215,16.8704491 99.1925547,16.2136189 98.084366,16.2136189 Z M111.032479,19.3571321 L115.812328,25.8075849 L111.582328,25.8075849 L108.329423,20.8803396 L108.329423,25.8075849 L105.134932,25.8075849 L105.134932,9.16981132 L108.329423,9.16981132 L108.329423,18.0933962 L111.341536,13.1858491 L115.131725,13.1858491 L111.032479,19.3571321 Z"/>
  </g>
</svg>
