<svg xmlns="http://www.w3.org/2000/svg" width="80" height="66" viewBox="0 0 80 66">
  <path fill="#121212" fill-rule="evenodd" d="M133.6,280.16 L133.6,313.52 L100,313.52 L100,291.44 C100,283.119958 101.439986,275.520034 104.32,268.64 C107.200014,261.759966 112.079966,254.880034 118.96,248 L131.44,257.6 C127.599981,261.920022 124.600011,265.839982 122.44,269.36 C120.279989,272.880018 118.880003,276.479982 118.24,280.16 L133.6,280.16 Z M179.92,280.16 L179.92,313.52 L146.32,313.52 L146.32,291.44 C146.32,283.119958 147.759986,275.520034 150.64,268.64 C153.520014,261.759966 158.399966,254.880034 165.28,248 L177.76,257.6 C173.919981,261.920022 170.920011,265.839982 168.76,269.36 C166.599989,272.880018 165.200003,276.479982 164.56,280.16 L179.92,280.16 Z" transform="translate(-100 -248)"/>
</svg>
