<svg xmlns="http://www.w3.org/2000/svg" width="148" height="58" viewBox="0 0 148 58">
  <g fill="#FFFFFF" fill-rule="evenodd">
    <path d="M54.002 48.268C47.695 49.108 44.818 54.018 44 58 46.22 55.17 49.564 52.902 54.002 52.902L54.002 56.5 60 50.585 54.002 44.5 54.002 48.268zM58 10L58 13.5C58 13.7761424 57.7761424 14 57.5 14 57.2238576 14 57 13.7761424 57 13.5L57 9.5C57 9.36192881 57.0559644 9.23692881 57.1464466 9.14644661 57.2369288 9.05596441 57.3619288 9 57.5 9L61.5 9C61.7761424 9 62 9.22385763 62 9.5 62 9.77614237 61.7761424 10 61.5 10L58 10zM58 4L58 .5C58 .223857625 57.7761424.32907052e-15 57.5.32907052e-15 57.2238576.32907052e-15 57 .223857625 57 .5L57 4.5C57 4.63807119 57.0559644 4.76307119 57.1464466 4.85355339 57.2369288 4.94403559 57.3619288 5 57.5 5L61.5 5C61.7761424 5 62 4.77614237 62 4.5 62 4.22385763 61.7761424 4 61.5 4L58 4zM48 10L48 13.5C48 13.7761424 48.2238576 14 48.5 14 48.7761424 14 49 13.7761424 49 13.5L49 9.5C49 9.36192881 48.9440356 9.23692881 48.8535534 9.14644661 48.7630712 9.05596441 48.6380712 9 48.5 9L44.5 9C44.2238576 9 44 9.22385763 44 9.5 44 9.77614237 44.2238576 10 44.5 10L48 10zM48 4L48 .5C48 .223857625 48.2238576.32907052e-15 48.5.32907052e-15 48.7761424.32907052e-15 49 .223857625 49 .5L49 4.5C49 4.63807119 48.9440356 4.76307119 48.8535534 4.85355339 48.7630712 4.94403559 48.6380712 5 48.5 5L44.5 5C44.2238576 5 44 4.77614237 44 4.5 44 4.22385763 44.2238576 4 44.5 4L48 4zM17 13L13.5 13C13.2238576 13 13 13.2238576 13 13.5 13 13.7761424 13.2238576 14 13.5 14L17.5 14C17.6380712 14 17.7630712 13.9440356 17.8535534 13.8535534 17.9440356 13.7630712 18 13.6380712 18 13.5L18 9.5C18 9.22385763 17.7761424 9 17.5 9 17.2238576 9 17 9.22385763 17 9.5L17 13zM17 1L13.5 1C13.2238576 1 13 .776142375 13 .5 13 .223857625 13.2238576.56352898e-15 13.5.61425551e-15L17.5.34904359e-15C17.6380712.37440685e-15 17.7630712.0559644063 17.8535534.146446609 17.9440356.236928813 18 .361928813 18 .5L18 4.5C18 4.77614237 17.7761424 5 17.5 5 17.2238576 5 17 4.77614237 17 4.5L17 1zM1 13L1 9.5C1 9.22385763.776142375 9 .5 9 .223857625 9 0 9.22385763 0 9.5L0 13.5C0 13.6380712.0559644063 13.7630712.146446609 13.8535534.236928813 13.9440356.361928813 14 .5 14L4.5 14C4.77614237 14 5 13.7761424 5 13.5 5 13.2238576 4.77614237 13 4.5 13L1 13zM1 1L1 4.5C1 4.77614237.776142375 5 .5 5 .223857625 5 0 4.77614237 0 4.5L0 .5C0 .361928813.0559644063.236928813.146446609.146446609.236928813.0559644063.361928813 0 .5 0L4.5 0C4.77614237 0 5 .223857625 5 .5 5 .776142375 4.77614237 1 4.5 1L1 1zM95 6L95 4.5C95 4.22385763 95.2238576 4 95.5 4 95.7761424 4 96 4.22385763 96 4.5L96 6 97.5 6C97.7761424 6 98 6.22385763 98 6.5 98 6.77614237 97.7761424 7 97.5 7L96 7 96 8.5C96 8.77614237 95.7761424 9 95.5 9 95.2238576 9 95 8.77614237 95 8.5L95 7 93.5 7C93.2238576 7 93 6.77614237 93 6.5 93 6.22385763 93.2238576 6 93.5 6L95 6zM95.5 13C99.0898509 13 102 10.0898509 102 6.5 102 2.91014913 99.0898509 0 95.5 0 91.9101491 0 89 2.91014913 89 6.5 89 10.0898509 91.9101491 13 95.5 13zM95.5 12C98.5375661 12 101 9.53756612 101 6.5 101 3.46243388 98.5375661 1 95.5 1 92.4624339 1 90 3.46243388 90 6.5 90 9.53756612 92.4624339 12 95.5 12zM103.146447 14.8535534C103.341709 15.0488155 103.658291 15.0488155 103.853553 14.8535534 104.048816 14.6582912 104.048816 14.3417088 103.853553 14.1464466L100.853553 11.1464466C100.658291 10.9511845 100.341709 10.9511845 100.146447 11.1464466 99.9511845 11.3417088 99.9511845 11.6582912 100.146447 11.8535534L103.146447 14.8535534zM139.5 13C143.089851 13 146 10.0898509 146 6.5 146 2.91014913 143.089851 0 139.5 0 135.910149 0 133 2.91014913 133 6.5 133 10.0898509 135.910149 13 139.5 13zM139.5 12C142.537566 12 145 9.53756612 145 6.5 145 3.46243388 142.537566 1 139.5 1 136.462434 1 134 3.46243388 134 6.5 134 9.53756612 136.462434 12 139.5 12zM137.5 7L141.5 7C141.776142 7 142 6.77614237 142 6.5 142 6.22385763 141.776142 6 141.5 6L137.5 6C137.223858 6 137 6.22385763 137 6.5 137 6.77614237 137.223858 7 137.5 7zM147.146447 14.8535534C147.341709 15.0488155 147.658291 15.0488155 147.853553 14.8535534 148.048816 14.6582912 148.048816 14.3417088 147.853553 14.1464466L144.853553 11.1464466C144.658291 10.9511845 144.341709 10.9511845 144.146447 11.1464466 143.951184 11.3417088 143.951184 11.6582912 144.146447 11.8535534L147.146447 14.8535534zM9 50.2928932L14.1464466 45.1464466C14.3417088 44.9511845 14.6582912 44.9511845 14.8535534 45.1464466 15.0488155 45.3417088 15.0488155 45.6582912 14.8535534 45.8535534L9.70710678 51 15.3644178 56.657311C15.55968 56.8525732 15.55968 57.1691557 15.3644178 57.3644178 15.1691557 57.55968 14.8525732 57.55968 14.657311 57.3644178L9 51.7071068 3.34268896 57.3644178C3.14742681 57.55968 2.83084432 57.55968 2.63558218 57.3644178 2.44032003 57.1691557 2.44032003 56.8525732 2.63558218 56.657311L8.29289322 51 3.14644661 45.8535534C2.95118446 45.6582912 2.95118446 45.3417088 3.14644661 45.1464466 3.34170876 44.9511845 3.65829124 44.9511845 3.85355339 45.1464466L9 50.2928932zM102.292893 44L90.4642857 44C90.2078678 44 90 43.7761424 90 43.5 90 43.2238576 90.2078678 43 90.4642857 43L102.292893 43 98.1464466 38.8535534C97.9511845 38.6582912 97.9511845 38.3417088 98.1464466 38.1464466 98.3417088 37.9511845 98.6582912 37.9511845 98.8535534 38.1464466L103.853553 43.1464466C103.951184 43.2440777 104 43.3720388 104 43.5 104 43.6279612 103.951184 43.7559223 103.853553 43.8535534L98.8535534 48.8535534C98.6582912 49.0488155 98.3417088 49.0488155 98.1464466 48.8535534 97.9511845 48.6582912 97.9511845 48.3417088 98.1464466 48.1464466L102.292893 44z"/>
    <path d="M146.292893,44 L134.464286,44 C134.207868,44 134,43.7761424 134,43.5 C134,43.2238576 134.207868,43 134.464286,43 L146.292893,43 L142.146447,38.8535534 C141.951184,38.6582912 141.951184,38.3417088 142.146447,38.1464466 C142.341709,37.9511845 142.658291,37.9511845 142.853553,38.1464466 L147.853553,43.1464466 C147.951184,43.2440777 148,43.3720388 148,43.5 C148,43.6279612 147.951184,43.7559223 147.853553,43.8535534 L142.853553,48.8535534 C142.658291,49.0488155 142.341709,49.0488155 142.146447,48.8535534 C141.951184,48.6582912 141.951184,48.3417088 142.146447,48.1464466 L146.292893,44 Z" transform="matrix(-1 0 0 1 282 0)"/>
  </g>
</svg>
