<svg xmlns="http://www.w3.org/2000/svg" width="264" height="88" viewBox="0 0 264 88">
  <g fill-rule="evenodd">
    <path d="M67.002 63.268C60.695 64.108 57.818 69.018 57 73 59.22 70.17 62.564 67.902 67.002 67.902L67.002 71.5 73 65.585 67.002 59.5 67.002 63.268zM70.1464466 24.1464466C70.0559644 24.2369288 70 24.3619288 70 24.5L70 28.5C70 28.7761424 70.2238576 29 70.5 29 70.7761424 29 71 28.7761424 71 28.5L71 25 74.5 25C74.7761424 25 75 24.7761424 75 24.5 75 24.2238576 74.7761424 24 74.5 24L70.5 24C70.3619288 24 70.2369288 24.0559644 70.1464466 24.1464466zM71 19L71 15.5C71 15.2238576 70.7761424 15 70.5 15 70.2238576 15 70 15.2238576 70 15.5L70 19.5C70 19.6380712 70.0559644 19.7630712 70.1464466 19.8535534 70.2369288 19.9440356 70.3619288 20 70.5 20L74.5 20C74.7761424 20 75 19.7761424 75 19.5 75 19.2238576 74.7761424 19 74.5 19L71 19zM61 25L61 28.5C61 28.7761424 61.2238576 29 61.5 29 61.7761424 29 62 28.7761424 62 28.5L62 24.5C62 24.3619288 61.9440356 24.2369288 61.8535534 24.1464466 61.7630712 24.0559644 61.6380712 24 61.5 24L57.5 24C57.2238576 24 57 24.2238576 57 24.5 57 24.7761424 57.2238576 25 57.5 25L61 25zM61.8535534 19.8535534C61.9440356 19.7630712 62 19.6380712 62 19.5L62 15.5C62 15.2238576 61.7761424 15 61.5 15 61.2238576 15 61 15.2238576 61 15.5L61 19 57.5 19C57.2238576 19 57 19.2238576 57 19.5 57 19.7761424 57.2238576 20 57.5 20L61.5 20C61.6380712 20 61.7630712 19.9440356 61.8535534 19.8535534zM30 28L26.5 28C26.2238576 28 26 28.2238576 26 28.5 26 28.7761424 26.2238576 29 26.5 29L30.5 29C30.6380712 29 30.7630712 28.9440356 30.8535534 28.8535534 30.9440356 28.7630712 31 28.6380712 31 28.5L31 24.5C31 24.2238576 30.7761424 24 30.5 24 30.2238576 24 30 24.2238576 30 24.5L30 28zM30.8535534 15.1464466C30.7630712 15.0559644 30.6380712 15 30.5 15L26.5 15C26.2238576 15 26 15.2238576 26 15.5 26 15.7761424 26.2238576 16 26.5 16L30 16 30 19.5C30 19.7761424 30.2238576 20 30.5 20 30.7761424 20 31 19.7761424 31 19.5L31 15.5C31 15.3619288 30.9440356 15.2369288 30.8535534 15.1464466zM14 28L14 24.5C14 24.2238576 13.7761424 24 13.5 24 13.2238576 24 13 24.2238576 13 24.5L13 28.5C13 28.6380712 13.0559644 28.7630712 13.1464466 28.8535534 13.2369288 28.9440356 13.3619288 29 13.5 29L17.5 29C17.7761424 29 18 28.7761424 18 28.5 18 28.2238576 17.7761424 28 17.5 28L14 28zM13.1464466 15.1464466C13.0559644 15.2369288 13 15.3619288 13 15.5L13 19.5C13 19.7761424 13.2238576 20 13.5 20 13.7761424 20 14 19.7761424 14 19.5L14 16 17.5 16C17.7761424 16 18 15.7761424 18 15.5 18 15.2238576 17.7761424 15 17.5 15L13.5 15C13.3619288 15 13.2369288 15.0559644 13.1464466 15.1464466zM109 21L110.5 21C110.776142 21 111 21.2238576 111 21.5 111 21.7761424 110.776142 22 110.5 22L109 22 109 23.5C109 23.7761424 108.776142 24 108.5 24 108.223858 24 108 23.7761424 108 23.5L108 22 106.5 22C106.223858 22 106 21.7761424 106 21.5 106 21.2238576 106.223858 21 106.5 21L108 21 108 19.5C108 19.2238576 108.223858 19 108.5 19 108.776142 19 109 19.2238576 109 19.5L109 21zM108.5 28C104.910149 28 102 25.0898509 102 21.5 102 17.9101491 104.910149 15 108.5 15 112.089851 15 115 17.9101491 115 21.5 115 25.0898509 112.089851 28 108.5 28zM108.5 27C111.537566 27 114 24.5375661 114 21.5 114 18.4624339 111.537566 16 108.5 16 105.462434 16 103 18.4624339 103 21.5 103 24.5375661 105.462434 27 108.5 27zM116.146447 29.8535534L113.146447 26.8535534C112.951184 26.6582912 112.951184 26.3417088 113.146447 26.1464466 113.341709 25.9511845 113.658291 25.9511845 113.853553 26.1464466L116.853553 29.1464466C117.048816 29.3417088 117.048816 29.6582912 116.853553 29.8535534 116.658291 30.0488155 116.341709 30.0488155 116.146447 29.8535534zM152.5 28C148.910149 28 146 25.0898509 146 21.5 146 17.9101491 148.910149 15 152.5 15 156.089851 15 159 17.9101491 159 21.5 159 25.0898509 156.089851 28 152.5 28zM152.5 27C155.537566 27 158 24.5375661 158 21.5 158 18.4624339 155.537566 16 152.5 16 149.462434 16 147 18.4624339 147 21.5 147 24.5375661 149.462434 27 152.5 27zM150.5 22C150.223858 22 150 21.7761424 150 21.5 150 21.2238576 150.223858 21 150.5 21L154.5 21C154.776142 21 155 21.2238576 155 21.5 155 21.7761424 154.776142 22 154.5 22L150.5 22zM160.146447 29.8535534L157.146447 26.8535534C156.951184 26.6582912 156.951184 26.3417088 157.146447 26.1464466 157.341709 25.9511845 157.658291 25.9511845 157.853553 26.1464466L160.853553 29.1464466C161.048816 29.3417088 161.048816 29.6582912 160.853553 29.8535534 160.658291 30.0488155 160.341709 30.0488155 160.146447 29.8535534zM22.7071068 66L27.8535534 60.8535534C28.0488155 60.6582912 28.0488155 60.3417088 27.8535534 60.1464466 27.6582912 59.9511845 27.3417088 59.9511845 27.1464466 60.1464466L22 65.2928932 16.8535534 60.1464466C16.6582912 59.9511845 16.3417088 59.9511845 16.1464466 60.1464466 15.9511845 60.3417088 15.9511845 60.6582912 16.1464466 60.8535534L21.2928932 66 15.6355822 71.657311C15.44032 71.8525732 15.44032 72.1691557 15.6355822 72.3644178 15.8308443 72.55968 16.1474268 72.55968 16.342689 72.3644178L22 66.7071068 27.657311 72.3644178C27.8525732 72.55968 28.1691557 72.55968 28.3644178 72.3644178 28.55968 72.1691557 28.55968 71.8525732 28.3644178 71.657311L22.7071068 66z"/>
    <path fill-rule="nonzero" d="M115.292893,59 L103.464286,59 C103.207868,59 103,58.7761424 103,58.5 C103,58.2238576 103.207868,58 103.464286,58 L115.292893,58 L111.146447,53.8535534 C110.951184,53.6582912 110.951184,53.3417088 111.146447,53.1464466 C111.341709,52.9511845 111.658291,52.9511845 111.853553,53.1464466 L116.853553,58.1464466 C116.951184,58.2440777 117,58.3720388 117,58.5 C117,58.6279612 116.951184,58.7559223 116.853553,58.8535534 L111.853553,63.8535534 C111.658291,64.0488155 111.341709,64.0488155 111.146447,63.8535534 C110.951184,63.6582912 110.951184,63.3417088 111.146447,63.1464466 L115.292893,59 Z"/>
    <path fill-rule="nonzero" d="M159.292893,59 L147.464286,59 C147.207868,59 147,58.7761424 147,58.5 C147,58.2238576 147.207868,58 147.464286,58 L159.292893,58 L155.146447,53.8535534 C154.951184,53.6582912 154.951184,53.3417088 155.146447,53.1464466 C155.341709,52.9511845 155.658291,52.9511845 155.853553,53.1464466 L160.853553,58.1464466 C160.951184,58.2440777 161,58.3720388 161,58.5 C161,58.6279612 160.951184,58.7559223 160.853553,58.8535534 L155.853553,63.8535534 C155.658291,64.0488155 155.341709,64.0488155 155.146447,63.8535534 C154.951184,63.6582912 154.951184,63.3417088 155.146447,63.1464466 L159.292893,59 Z" transform="matrix(-1 0 0 1 308 0)"/>
  </g>
</svg>
