<svg xmlns="http://www.w3.org/2000/svg" width="270" height="74" viewBox="0 0 270 74">
  <g fill="#FFF" fill-rule="evenodd">
    <path d="M238.5 59.9553793L238.5 38.3113535 227.229047 38.3113535 227.229047 59.9553793 222.260566 59.9553793 222.260566 38.3113535 219 38.3113535 219 34.5 222.260566 34.5 222.260566 33.5071889C222.260566 25.0619732 228.781698 24 232.094019 24 233.232629 24 234.008954 24.1517105 234.008954 24.1517105L234.008954 28.3490332C234.008954 28.3490332 233.491404 28.2478929 232.715079 28.2478929 230.800143 28.2478929 227.229047 28.8547348 227.229047 33.6083292L227.229047 34.5 243 34.5 243 59.9553793 238.5 59.9553793zM240.5 24L241 24C242.104569 24 243 24.8954305 243 26L243 26.5C243 27.6045695 242.104569 28.5 241 28.5L240.5 28.5C239.395431 28.5 238.5 27.6045695 238.5 26.5L238.5 26C238.5 24.8954305 239.395431 24 240.5 24zM258.051724 50.0721344L257.948276 50.0721344C257.948276 50.0721344 257.534483 50.8784585 257.172414 51.4832016L251.689655 60 246 60 254.896552 46.8972332 246.465517 34.5 252.206897 34.5 257.068966 42.2608696C257.482759 42.9160079 257.948276 43.7727273 257.948276 43.7727273L258.051724 43.7727273C258.051724 43.7727273 258.517241 42.9160079 258.931034 42.2608696L263.793103 34.5 269.534483 34.5 261.103448 46.8972332 270 60 264.310345 60 258.827586 51.4832016C258.465517 50.8784585 258.051724 50.0721344 258.051724 50.0721344zM57.9663695 27.7803747C57.9663695 27.7803747 58.748079 31.0973957 59.3739678 32.9624103L63.4388575 44.5712065 52.2859467 44.5712065 56.4029504 32.9624103C57.0288392 31.0973957 57.8621415 27.7803747 57.8621415 27.7803747L57.9663695 27.7803747zM47.2824844 59.3410444L50.9304623 48.8209939 64.7938208 48.8209939 67.7194991 57.1386792C61.1057151 67.0482859 49.7881241 73.5849057 36.9310864 73.5849057 16.5347206 73.5849057 0 57.1433431 0 36.8618921 0 16.5804411 16.5347206.138878554 36.9310864.138878554 57.3274522.138878554 73.8621728 16.5804411 73.8621728 36.8618921 73.8621728 41.9604969 72.8157243 46.8155461 70.927114 51.2285676L60.6247031 22.753282 55.204329 22.753282 41.9663382 59.3410444 47.2824844 59.3410444zM67.7194991 57.1386792C68.9603327 55.2798831 70.0390919 53.3044911 70.927114 51.2285676L73.8621728 59.3410444 68.4944338 59.3410444 67.7194991 57.1386792zM79.5 59.418L79.5 33.612 84.294 33.612 84.294 37.029C84.294 38.049 84.192 38.916 84.192 38.916L84.294 38.916C85.314 36.672 88.374 33 93.984 33 100.053 33 102.858 36.315 102.858 42.894L102.858 59.418 97.911 59.418 97.911 44.016C97.911 40.395 97.146 37.539 93.015 37.539 89.088 37.539 85.926 40.14 84.855 43.863 84.549 44.883 84.447 46.056 84.447 47.331L84.447 59.418 79.5 59.418zM106.5 52.176C106.5 43.659 117.72 43.302 122.055 43.302L123.177 43.302 123.177 42.843C123.177 38.61 120.78 37.182 117.516 37.182 113.538 37.182 110.325 39.681 110.325 39.681L108.285 36.06C108.285 36.06 112.008 33 117.924 33 124.452 33 128.124 36.57 128.124 43.098L128.124 59.418 123.534 59.418 123.534 56.97C123.534 55.797 123.636 54.93 123.636 54.93L123.534 54.93C123.534 54.93 121.443 60.03 115.272 60.03 110.835 60.03 106.5 57.327 106.5 52.176zM111.498 51.921C111.498 54.012 113.13 56.052 116.343 56.052 120.525 56.052 123.228 51.666 123.228 47.841L123.228 47.025 121.953 47.025C118.23 47.025 111.498 47.28 111.498 51.921zM130.5 59.418L130.5 33.612 135.294 33.612 135.294 37.029C135.294 38.049 135.192 38.916 135.192 38.916L135.294 38.916C136.518 35.907 140.139 33 144.168 33 148.503 33 151.053 34.989 151.92 38.865L152.022 38.865C153.45 35.754 157.02 33 161.202 33 167.016 33 169.719 36.315 169.719 42.894L169.719 59.418 164.772 59.418 164.772 43.965C164.772 40.344 164.058 37.488 160.182 37.488 156.561 37.488 153.858 40.548 152.94 44.067 152.685 45.138 152.583 46.311 152.583 47.637L152.583 59.418 147.636 59.418 147.636 43.965C147.636 40.599 147.126 37.488 143.148 37.488 139.374 37.488 136.722 40.599 135.753 44.271 135.498 45.291 135.447 46.464 135.447 47.637L135.447 59.418 130.5 59.418zM172.5 46.464C172.5 38.661 178.722 33 186.423 33 194.124 33 200.346 38.661 200.346 46.464 200.346 54.318 194.124 60.03 186.423 60.03 178.722 60.03 172.5 54.318 172.5 46.464zM177.549 46.464C177.549 51.87 181.578 55.746 186.423 55.746 191.319 55.746 195.297 51.87 195.297 46.464 195.297 41.109 191.319 37.284 186.423 37.284 181.578 37.284 177.549 41.109 177.549 46.464zM202.5 59.2508786L202.5 33.4448786 207.294 33.4448786 207.294 37.9328786C207.294 39.0038786 207.192 39.8708786 207.192 39.8708786L207.294 39.8708786C208.467 36.0968786 211.476 33.1388786 215.454 33.1388786 216.117 33.1388786 216.729 33.2408786 216.729 33.2408786L216.729 38.1368786C216.729 38.1368786 216.066 37.9838786 215.301 37.9838786 212.139 37.9838786 209.232 40.2278786 208.059 44.0528786 207.6 45.5318786 207.447 47.1128786 207.447 48.6938786L207.447 59.2508786 202.5 59.2508786z"/>
  </g>
</svg>
